<svg width="26" height="17" viewBox="0 0 26 17" fill="none" xmlns="http://www.w3.org/2000/svg">
<path fill-rule="evenodd" clip-rule="evenodd" d="M13.3691 3.40086C16.9964 3.401 20.485 4.6725 23.1138 6.95255C23.3118 7.12858 23.6282 7.12636 23.8232 6.94757L25.7155 5.20532C25.8142 5.11464 25.8692 4.99181 25.8684 4.86401C25.8676 4.73621 25.811 4.61398 25.7111 4.52435C18.8112 -1.50812 7.92587 -1.50812 1.026 4.52435C0.926051 4.61391 0.869341 4.73611 0.86842 4.86391C0.867498 4.99171 0.922441 5.11458 1.02109 5.20532L2.91394 6.94757C3.10878 7.12663 3.42544 7.12885 3.62328 6.95255C6.25246 4.67235 9.74145 3.40085 13.3691 3.40086ZM13.3642 9.22037C15.3438 9.22025 17.2527 9.92591 18.72 11.2002C18.9185 11.3811 19.2311 11.3772 19.4246 11.1914L21.302 9.37214C21.4009 9.27672 21.4558 9.14727 21.4543 9.01275C21.4529 8.87823 21.3953 8.74988 21.2944 8.6564C16.826 4.67009 9.90615 4.67009 5.43775 8.6564C5.33682 8.74987 5.27923 8.87829 5.27791 9.01285C5.27658 9.14742 5.33163 9.27685 5.43071 9.37214L7.30758 11.1914C7.50105 11.3772 7.81369 11.3811 8.01215 11.2002C9.47854 9.92675 11.3859 9.22115 13.3642 9.22037ZM17.0459 13.0725C17.0487 13.2178 16.9947 13.3578 16.8965 13.4596L13.722 16.8445C13.6289 16.944 13.5021 17 13.3697 17C13.2373 17 13.1104 16.944 13.0174 16.8445L9.84231 13.4596C9.74423 13.3578 9.69027 13.2177 9.69318 13.0724C9.69609 12.9271 9.7556 12.7895 9.85767 12.6922C11.885 10.8804 14.8543 10.8804 16.8817 12.6922C16.9837 12.7896 17.0431 12.9272 17.0459 13.0725Z" fill="black"/>
</svg>
